<svg class="svg-icon" style="width: 1em; height: 1em;vertical-align: middle;fill: currentColor;overflow: hidden;" viewBox="0 0 1024 1024" version="1.1" xmlns="http://www.w3.org/2000/svg"><path d="M292.571429 804.571429a18.285714 18.285714 0 0 1-18.285715 18.285714H146.285714a18.285714 18.285714 0 0 1-18.285714-18.285714V402.285714a18.285714 18.285714 0 0 1 18.285714-18.285714h128a18.285714 18.285714 0 0 1 18.285715 18.285714v402.285715zM256 420.571429H164.571429v365.714285H256v-365.714285z m370.285714-36.571429H877.714286a18.285714 18.285714 0 0 1 18.285714 18.285714v182.857143a18.285714 18.285714 0 0 1-1.938286 8.192l-109.714285 219.428572A18.285714 18.285714 0 0 1 768 822.857143H347.428571A18.285714 18.285714 0 0 1 329.142857 804.571429V402.285714a18.285714 18.285714 0 0 1 4.864-12.434285l236.726857-256a18.285714 18.285714 0 0 1 26.258286-0.585143l21.833143 21.577143c33.718857 33.243429 49.188571 94.939429 35.108571 140.178285l-27.648 88.978286z m233.142857 36.571429h-258.011428a18.285714 18.285714 0 0 1-17.444572-23.698286l35.035429-112.713143c10.020571-32.182857-1.865143-79.652571-25.856-103.314286l-8.411429-8.265143L365.714286 409.453714V786.285714h390.985143l102.729142-205.458285V420.571429z"  /></svg>