<svg class="svg-icon" style="width: 1em; height: 1em;vertical-align: middle;fill: currentColor;overflow: hidden;" viewBox="0 0 1024 1024" version="1.1" xmlns="http://www.w3.org/2000/svg"><path d="M731.428571 219.428571a18.285714 18.285714 0 0 1 18.285715-18.285714H877.714286a18.285714 18.285714 0 0 1 18.285714 18.285714v402.285715a18.285714 18.285714 0 0 1-18.285714 18.285714h-128a18.285714 18.285714 0 0 1-18.285715-18.285714V219.428571z m36.571429 384h91.428571v-365.714285H768v365.714285z m-370.285714 36.571429H146.285714a18.285714 18.285714 0 0 1-18.285714-18.285714v-182.857143a18.285714 18.285714 0 0 1 1.938286-8.192l109.714285-219.428572A18.285714 18.285714 0 0 1 256 201.142857h420.571429a18.285714 18.285714 0 0 1 18.285714 18.285714v402.285715a18.285714 18.285714 0 0 1-4.864 12.434285l-236.726857 256a18.285714 18.285714 0 0 1-26.258286 0.585143l-21.833143-21.577143c-33.718857-33.243429-49.188571-94.939429-35.108571-140.178285l27.648-88.978286z m-233.142857-36.571429h258.011428a18.285714 18.285714 0 0 1 17.444572 23.698286l-35.035429 112.713143c-10.020571 32.182857 1.865143 79.652571 25.856 103.314286l8.411429 8.265143L658.285714 614.546286V237.714286H267.300571L164.571429 443.172571V603.428571z"  /></svg>