<?xml version="1.0" encoding="UTF-8" standalone="no"?>
<svg
   class="svg-icon"
   style="width: 1em; height: 1em;vertical-align: middle;fill: currentColor;overflow: hidden;"
   viewBox="0 0 1024 1024"
   version="1.1"
   id="svg4"
   xmlns="http://www.w3.org/2000/svg"
   xmlns:svg="http://www.w3.org/2000/svg">
  <defs
     id="defs8" />
  <path
     d="m 731.42857,219.42857 c 0,-10.09892 8.18679,-18.28571 18.28572,-18.28571 h 128 c 10.09892,0 18.28571,8.18679 18.28571,18.28571 V 621.71429 C 896,631.81321 887.81321,640 877.71429,640 h -128 c -10.09893,0 -18.28572,-8.18679 -18.28572,-18.28571 z M 397.71429,640 H 146.28571 C 136.18679,640 128,631.81321 128,621.71429 V 438.85714 c 1.9e-4,-2.84425 0.66387,-5.64924 1.93829,-8.192 L 239.65257,211.23657 c 3.10021,-6.1868 9.42733,-10.09348 16.34743,-10.09371 h 420.57143 c 10.09892,0 18.28571,8.18679 18.28571,18.28571 v 402.28572 c 0.004,4.60968 -1.73333,9.05077 -4.864,12.43428 l -236.72685,256 c -7.01782,7.57347 -18.91008,7.83848 -26.25829,0.58514 L 405.17486,869.15657 C 371.456,835.91314 355.98629,774.21714 370.06629,728.97829 Z"
     id="path2" />
</svg>
