<?xml version="1.0" encoding="UTF-8" standalone="no"?>
<svg
   class="svg-icon"
   style="width: 1em; height: 1em;vertical-align: middle;fill: currentColor;overflow: hidden;"
   viewBox="0 0 1024 1024"
   version="1.1"
   id="svg4"
   xmlns="http://www.w3.org/2000/svg"
   xmlns:svg="http://www.w3.org/2000/svg">
  <defs
     id="defs8" />
  <path
     d="m 292.57143,804.57143 c 0,10.09892 -8.18679,18.28571 -18.28572,18.28571 h -128 C 136.18679,822.85714 128,814.67035 128,804.57143 V 402.28571 C 128,392.18679 136.18679,384 146.28571,384 h 128 c 10.09893,0 18.28572,8.18679 18.28572,18.28571 z M 626.28571,384 H 877.71429 C 887.81321,384 896,392.18679 896,402.28571 v 182.85715 c -1.9e-4,2.84425 -0.66387,5.64924 -1.93829,8.192 L 784.34743,812.76343 C 781.24722,818.95023 774.9201,822.85691 768,822.85714 H 347.42857 c -10.09892,0 -18.28571,-8.18679 -18.28571,-18.28571 V 402.28571 c -0.004,-4.60968 1.73333,-9.05077 4.864,-12.43428 l 236.72685,-256 c 7.01782,-7.57347 18.91008,-7.83848 26.25829,-0.58514 l 21.83314,21.57714 c 33.71886,33.24343 49.18857,94.93943 35.10857,140.17828 z"
     id="path2" />
</svg>
